<svg width="1027" height="1034" viewBox="0 0 1027 1034" fill="none" xmlns="http://www.w3.org/2000/svg">
<rect width="1027" height="534" transform="translate(0 439)" fill="white"/>
<mask id="mask0_237_530" style="mask-type:alpha" maskUnits="userSpaceOnUse" x="0" y="439" width="1027" height="2063">
<rect y="439" width="1027" height="2063" fill="white"/>
</mask>
<g mask="url(#mask0_237_530)">
<path d="M-61 989.195V402.53L1164.33 335C1293.95 604.868 1457.69 1073.61 1205.58 1031.32C1162.87 1039.95 1104.44 1028.19 1026.8 989.195C869.701 910.291 704.726 879.149 549.007 875.588C322.174 880.689 120.682 940.465 0.516788 989.195L-1.78683 967.226C-23.5379 974.648 -43.3583 982.041 -61 989.195Z" fill="url(#paint0_radial_237_530)"/>
</g>
<rect width="1027" height="534" fill="white"/>
<mask id="mask1_237_530" style="mask-type:alpha" maskUnits="userSpaceOnUse" x="0" y="0" width="1027" height="2063">
<rect width="1027" height="2063" fill="white"/>
</mask>
<g mask="url(#mask1_237_530)">
<path d="M-61 550.195V-36.4702L1164.33 -104C1293.95 165.868 1457.69 634.613 1205.58 592.323C1162.87 600.952 1104.44 589.192 1026.8 550.195C869.701 471.291 704.726 440.149 549.007 436.588C322.174 441.689 120.682 501.465 0.516788 550.195L-1.78683 528.226C-23.5379 535.648 -43.3583 543.041 -61 550.195Z" fill="url(#paint1_radial_237_530)"/>
</g>
<defs>
<radialGradient id="paint0_radial_237_530" cx="0" cy="0" r="1" gradientUnits="userSpaceOnUse" gradientTransform="translate(48.0298 489.58) rotate(34.0055) scale(973.445 2748.95)">
<stop stop-color="white"/>
<stop offset="1" stop-color="white"/>
</radialGradient>
<radialGradient id="paint1_radial_237_530" cx="0" cy="0" r="1" gradientUnits="userSpaceOnUse" gradientTransform="translate(48.0298 50.5799) rotate(34.0055) scale(973.445 2748.95)">
<stop stop-color="PLACEHOLDER_COLOR_1"/>
<stop offset="1" stop-color="PLACEHOLDER_COLOR_2"/>
</radialGradient>
</defs>
</svg>
