<svg width="321" height="321" viewBox="0 0 321 321" fill="none" xmlns="http://www.w3.org/2000/svg">
<path d="M160.5 321C249.142 321 321 249.142 321 160.5C321 71.8583 249.142 0 160.5 0C71.8583 0 0 71.8583 0 160.5C0 249.142 71.8583 321 160.5 321Z" fill="white"/>
<path fill-rule="evenodd" clip-rule="evenodd" d="M229.746 244.351V76.6492C229.746 74.6357 228.114 73.0034 226.101 73.0034H94.8985C92.8857 73.0034 91.2539 74.6357 91.2539 76.6492V244.351C91.2539 246.364 92.8857 247.997 94.8985 247.997H226.101C228.114 247.997 229.746 246.364 229.746 244.351ZM109.477 94.8773H164.144V102.169H109.477V94.8773ZM109.477 131.334H171.433V138.626H109.477V131.334ZM182.367 167.792H211.523V175.083H182.367V167.792ZM182.367 186.02H211.523V193.312H182.367V186.02ZM182.367 204.249H211.523V211.54H182.367V204.249ZM182.367 131.334H211.523V138.626H182.367V131.334ZM182.367 149.563H211.523V156.855H182.367V149.563ZM109.477 149.563H171.433V156.855H109.477V149.563ZM109.477 167.792H171.433V175.083H109.477V167.792ZM109.477 186.02H171.433V193.312H109.477V186.02Z" fill="white"/>
<path d="M160.5 309C243.067 309 310 242.067 310 159.5C310 76.9334 243.067 10 160.5 10C77.9334 10 11 76.9334 11 159.5C11 242.067 77.9334 309 160.5 309Z" fill="PLACEHOLDER"/>
<path fill-rule="evenodd" clip-rule="evenodd" d="M225 237.604V81.3959C225 79.5204 223.48 78 221.605 78H99.3948C97.5199 78 96 79.5204 96 81.3959V237.604C96 239.48 97.5199 241 99.3948 241H221.605C223.48 241 225 239.48 225 237.604ZM112.974 98.3747H163.895V105.167H112.974V98.3747ZM112.974 132.333H170.684V139.125H112.974V132.333ZM180.868 166.292H208.026V173.084H180.868V166.292ZM180.868 183.271H208.026V190.063H180.868V183.271ZM180.868 200.25H208.026V207.042H180.868V200.25ZM180.868 132.333H208.026V139.125H180.868V132.333ZM180.868 149.312H208.026V156.104H180.868V149.312ZM112.974 149.312H170.684V156.104H112.974V149.312ZM112.974 166.292H170.684V173.084H112.974V166.292ZM112.974 183.271H170.684V190.063H112.974V183.271Z" fill="#FFFFFE"/>
</svg>
