<svg width="325" height="323" viewBox="0 0 325 323" fill="none" xmlns="http://www.w3.org/2000/svg">
<rect width="325" height="323" rx="161.5" fill="#FFFBFB"/>
<circle cx="162.5" cy="160.5" r="149.5" fill="#5392DB"/>
<path d="M245.402 226.918V255.82H86.9414V226.918C86.9414 186.307 119.83 153.418 160.441 153.418H171.902C212.514 153.418 245.402 186.307 245.402 226.918Z" fill="#2086A5"/>
<path d="M215.541 102.083C215.541 130.735 192.121 153.907 163.468 153.907C157.488 153.907 151.758 152.91 146.277 150.917C119.368 141.449 105.166 111.8 114.883 84.8913C124.6 57.9828 154.249 43.7811 181.158 53.4981C201.588 60.7235 215.541 80.1574 215.541 102.083Z" fill="#F7D6BF"/>
<path d="M113.137 89.6252C123.85 93.6117 135.311 95.6049 146.772 95.6049C173.432 95.6049 196.104 85.3897 205.074 71.188C187.882 48.2659 155.243 43.532 132.321 60.7236C122.854 67.949 116.127 78.1642 113.137 89.6252Z" fill="#EABFA2"/>
<path d="M180.909 154.903C180.411 164.62 172.188 172.094 162.472 171.596C153.502 171.098 146.277 163.872 145.778 154.903C149.765 154.155 153.751 153.906 157.488 153.906H169.199C173.185 153.906 177.172 154.155 180.909 154.903Z" fill="#80BFBE"/>
<path d="M147.522 214.45C147.522 232.639 157.239 237.372 164.216 237.372C171.192 237.372 180.909 232.639 180.909 214.45C180.909 196.262 173.434 171.596 164.216 171.596C154.997 171.596 147.522 196.262 147.522 214.45Z" fill="#80BFBE"/>
<rect width="325" height="323" rx="161.5" fill="#FFFBFB"/>
<circle cx="162.5" cy="160.5" r="149.5" fill="#5392DB"/>
<path d="M245.402 226.918V255.82H86.9414V226.918C86.9414 186.307 119.83 153.418 160.441 153.418H171.902C212.514 153.418 245.402 186.307 245.402 226.918Z" fill="#2086A5"/>
<path d="M215.541 102.083C215.541 130.735 192.121 153.907 163.468 153.907C157.488 153.907 151.758 152.91 146.277 150.917C119.368 141.449 105.166 111.8 114.883 84.8913C124.6 57.9828 154.249 43.7811 181.158 53.4981C201.588 60.7235 215.541 80.1574 215.541 102.083Z" fill="#F7D6BF"/>
<path d="M113.137 89.6252C123.85 93.6117 135.311 95.6049 146.772 95.6049C173.432 95.6049 196.104 85.3897 205.074 71.188C187.882 48.2659 155.243 43.532 132.321 60.7236C122.854 67.949 116.127 78.1642 113.137 89.6252Z" fill="#EABFA2"/>
<path d="M180.909 154.903C180.411 164.62 172.188 172.094 162.472 171.596C153.502 171.098 146.277 163.872 145.778 154.903C149.765 154.155 153.751 153.906 157.488 153.906H169.199C173.185 153.906 177.172 154.155 180.909 154.903Z" fill="#80BFBE"/>
<path d="M147.522 214.45C147.522 232.639 157.239 237.372 164.216 237.372C171.192 237.372 180.909 232.639 180.909 214.45C180.909 196.262 173.434 171.596 164.216 171.596C154.997 171.596 147.522 196.262 147.522 214.45Z" fill="#80BFBE"/>
<path d="M247.249 217.555C246.999 215.072 244.745 213.582 242.241 213.831C239.738 214.079 238.235 216.313 238.486 218.796C238.987 221.775 238.987 224.754 238.987 227.981V252.559H215.452V221.527C215.452 219.044 213.449 217.058 210.945 217.058C208.441 217.058 206.438 219.044 206.438 221.527V252.311H122.814V221.527C122.814 219.044 120.811 217.058 118.307 217.058C115.803 217.058 113.8 219.044 113.8 221.527V252.311H88.763V227.733C88.5127 195.459 111.046 167.654 142.844 160.455C144.596 166.413 148.602 171.13 154.11 173.861C147.1 183.791 143.344 202.659 143.344 214.824C143.344 234.933 154.861 242.132 164.626 242.132C174.39 242.132 185.908 234.933 185.908 214.824C185.908 202.659 182.152 183.295 174.641 173.613C179.648 170.882 183.404 166.165 184.906 160.703C201.431 164.427 215.952 174.109 225.967 187.763C227.219 189.749 229.973 190.246 231.976 188.756C233.979 187.267 234.48 184.536 232.978 182.55C222.462 167.903 207.189 157.476 189.663 152.759C209.693 142.828 221.21 122.471 220.709 101.369C219.708 72.819 196.423 47 163.875 47C132.578 47 107.291 72.3225 107.291 103.107C107.291 123.216 118.557 143.077 138.337 152.759C104.036 161.696 80 192.48 80 227.733V256.531C80 259.014 82.003 260.752 84.5067 261C140.34 261 187.911 261 243.493 261C245.997 261 248 259.014 248 256.531V227.733C247.75 224.258 247.499 221.03 247.249 217.555ZM163.875 167.654C158.367 167.654 153.359 164.179 151.607 159.213C158.367 158.717 171.636 158.717 176.393 159.213C174.39 164.427 169.383 167.654 163.875 167.654ZM164.626 233.195C160.87 233.195 152.107 231.457 152.107 214.575C152.107 194.466 160.62 176.095 164.626 176.095C168.632 176.095 177.145 194.218 177.145 214.575C177.145 231.457 168.382 233.195 164.626 233.195ZM163.875 55.6891C177.145 55.6891 190.414 61.1508 200.179 72.3225C190.665 84.239 169.884 91.935 147.1 91.935C137.586 91.935 127.821 90.4455 118.808 87.7146C125.317 68.5986 143.344 55.6891 163.875 55.6891ZM116.054 102.858C116.054 100.624 116.304 98.3898 116.554 95.9072C126.319 98.8863 136.584 100.376 147.1 100.376C171.636 100.376 193.669 92.1833 205.437 79.2738C209.693 86.4733 211.696 94.4176 211.696 102.61C211.696 128.926 190.164 150.028 163.875 150.028C137.586 150.028 116.054 129.174 116.054 102.858ZM235.982 195.459C238.235 194.466 240.739 195.459 241.741 197.694C241.991 198.439 242.492 199.183 242.742 199.928C243.744 202.162 242.492 204.645 240.238 205.638C237.985 206.631 235.231 205.39 234.48 203.155C234.23 202.411 233.979 201.666 233.729 201.169C232.727 198.935 233.729 196.452 235.982 195.459Z" fill="#172956"/>
</svg>
