<svg width="431" height="428" viewBox="0 0 431 428" fill="none" xmlns="http://www.w3.org/2000/svg">
<rect width="431" height="428" rx="214" fill="white"/>
<circle cx="216" cy="215" r="203" fill="PLACEHOLDER_4"/>
<path d="M265.532 167.967C265.532 176.141 263.571 184.314 259.648 191.506C246.571 215.372 216.494 224.198 192.628 211.121C184.128 206.545 177.263 199.679 173.013 191.506C169.089 184.314 167.128 176.141 167.128 167.967C167.128 166.66 167.128 165.352 167.128 164.044C169.416 136.91 193.282 116.64 220.417 118.929C244.609 120.89 263.571 140.179 265.532 164.044C265.532 165.352 265.532 166.66 265.532 167.967Z" fill="#F7D6BF"/>
<path d="M291.36 286.967V314.429H140.975V286.967C140.975 248.39 172.359 217.005 210.937 217.005H221.398C259.975 217.005 291.36 248.39 291.36 286.967Z" fill="PLACEHOLDER_1"/>
<path d="M163.859 235.314C149.148 248.718 140.974 267.353 140.974 286.968V307.564H69.3779V289.257C69.3779 254.603 97.4935 226.814 132.148 226.814C142.936 226.487 154.051 229.756 163.859 235.314Z" fill="PLACEHOLDER_2"/>
<path d="M172.686 191.179C169.744 213.737 148.821 229.102 126.59 226.16C104.032 223.218 88.6664 202.295 91.6087 180.064C94.551 157.833 115.147 142.14 137.705 145.083C149.801 146.717 160.59 153.583 166.801 164.044C166.801 165.352 166.801 166.66 166.801 167.967C166.475 176.141 168.763 183.987 172.686 191.179Z" fill="#EABFA2"/>
<path d="M362.957 289.256V307.564H291.36V286.967C291.36 267.352 283.187 248.39 268.476 235.313C298.226 217.659 336.476 227.467 354.13 257.217C359.688 267.025 362.957 278.14 362.957 289.256Z" fill="PLACEHOLDER_3"/>
<path d="M341.38 185.621C341.38 208.179 322.745 226.814 300.187 226.487C279.918 226.487 262.591 211.448 259.648 191.179C263.572 183.986 265.533 175.813 265.533 167.64C265.533 166.333 265.533 165.025 265.533 163.717C277.629 144.429 302.803 138.544 322.091 150.64C333.86 158.486 341.38 171.563 341.38 185.621Z" fill="#EABFA2"/>
</svg>
