<svg width="359" height="301" viewBox="0 0 359 301" fill="none" xmlns="http://www.w3.org/2000/svg">
<path d="M333.444 178.51C337.906 169.312 340.746 159.279 340.746 148.41C340.746 120.818 323.709 96.9889 300.181 87.7917C300.181 39.2972 262.05 0 214.994 0C175.241 0 141.978 28.0097 132.648 66.0528C126.563 63.9625 120.478 62.7083 113.582 62.7083C82.347 62.7083 56.7911 86.9555 53.1402 118.31C32.0464 122.908 16.2261 142.139 16.2261 165.132C16.2261 191.887 36.9142 213.208 62.8758 213.208C63.6871 213.208 64.4984 213.208 64.904 213.208C64.904 214.044 64.904 214.462 64.904 215.299C64.904 262.539 102.224 301 148.062 301C174.024 301 197.552 288.458 212.561 269.228C221.485 278.425 233.654 284.278 247.446 284.278C266.512 284.278 282.738 272.99 290.851 257.104C295.313 258.358 299.775 259.194 304.237 259.194C328.982 259.194 348.859 238.71 348.859 213.208C348.859 199.412 342.774 186.871 333.444 178.51Z" fill="#FFA5A5"/>
<path d="M259.616 146.32H236.088C225.947 149.664 217.834 140.885 217.834 130.434C217.834 120.818 225.136 112.875 234.466 111.621C234.466 110.785 234.06 109.949 234.06 109.531C234.06 99.0795 242.173 90.7184 252.314 90.7184C257.993 90.7184 263.267 93.6448 266.512 97.8254C266.918 86.9559 275.842 78.1768 286.794 78.1768C298.153 78.1768 307.077 87.374 307.077 99.0795C307.077 100.752 306.671 102.842 306.266 104.514C308.7 101.17 312.756 99.0795 317.218 99.0795C324.52 99.0795 330.199 104.514 331.416 112.039C332.227 112.039 333.038 111.621 333.444 111.621C343.585 111.621 351.698 119.982 351.698 130.434C351.698 140.885 343.585 149.246 333.444 146.32H294.907H271.785V150.5H259.616V146.32Z" fill="#FDFCEF"/>
<path d="M285.983 75.25C298.153 75.25 308.294 85.7014 308.294 98.2431C310.728 96.5708 313.567 96.1528 316.407 96.1528C323.709 96.1528 330.199 101.587 332.227 108.694H332.633C345.208 108.694 354.944 120.4 352.51 133.778C350.482 143.811 341.557 150.5 331.822 150.5H272.191C270.974 150.5 270.163 149.664 270.163 148.41C270.163 147.156 270.974 146.319 272.191 146.319H331.822C339.529 146.319 346.831 140.885 348.453 132.942C350.482 122.072 342.774 112.875 332.633 112.875C332.227 112.875 331.822 112.875 331.416 112.875H331.01C331.01 112.875 331.01 112.875 330.605 112.875C329.793 112.875 328.577 112.039 328.577 111.203C327.765 104.932 322.492 100.333 316.407 100.333C312.756 100.333 309.511 102.006 307.077 104.932C306.671 105.35 306.266 105.768 305.455 105.768C305.049 105.768 304.643 105.768 304.643 105.35C303.832 104.932 303.426 104.096 303.426 102.842C304.238 100.333 304.238 98.243 303.832 96.5708C303.021 87.7917 295.719 80.2667 287.2 79.4306C276.653 78.5944 268.135 86.5375 267.323 96.9889C267.323 97.825 266.512 98.6611 266.106 99.0792C265.701 99.0792 265.701 99.0792 265.295 99.0792C264.484 99.0792 264.078 98.6611 263.673 98.2431C260.427 94.0625 255.965 91.9722 251.097 91.9722C242.173 91.9722 234.871 99.4972 234.871 108.694C234.871 109.112 234.871 109.531 234.871 109.949V110.367C234.871 110.785 234.871 111.621 234.466 112.039C234.06 112.457 234.06 112.875 233.654 112.875C223.919 113.711 217.428 122.908 219.457 133.36C221.079 141.303 228.381 146.319 236.088 146.319H260.427C261.644 146.319 262.456 147.156 262.456 148.41C262.456 149.664 261.239 150.5 260.022 150.5H236.088C225.947 150.5 217.023 143.393 215.4 133.36C213.372 121.654 220.674 111.621 231.221 109.531V109.112C231.221 97.4069 240.145 88.2097 251.503 88.2097C256.371 88.2097 260.833 89.8819 264.484 93.2264C266.918 82.775 275.436 75.25 285.983 75.25Z" fill="#472B29"/>
<path d="M293.285 105.769C298.964 105.769 303.832 109.949 305.049 115.384C306.671 114.548 308.294 114.13 309.917 114.13C314.784 114.13 318.841 117.892 319.652 122.909C320.463 122.909 321.275 122.491 322.086 122.491C328.171 122.491 333.444 127.507 333.85 133.778C333.85 134.196 333.444 135.032 333.039 135.032C332.633 135.032 332.227 134.614 332.227 134.196C331.822 128.762 327.359 124.581 322.492 124.581C321.68 124.581 320.463 124.581 319.652 124.999C319.652 124.999 319.652 124.999 319.246 124.999C318.841 124.999 318.841 124.999 318.435 124.581C318.03 124.581 318.03 124.163 318.03 123.745C318.03 119.564 314.784 115.802 310.322 115.802C308.7 115.802 306.671 116.638 305.454 117.892C305.454 117.892 305.049 118.31 304.643 118.31H304.237C303.832 118.31 303.832 117.892 303.426 117.474C303.021 112.039 298.558 107.859 293.285 107.859C292.474 107.859 291.662 107.859 290.445 108.277C290.445 108.277 290.445 108.277 290.04 108.277C289.634 108.277 289.228 107.859 289.228 107.441C289.228 107.023 289.228 106.187 290.04 106.187C290.851 105.769 292.068 105.769 293.285 105.769ZM236.9 112.039C242.173 112.039 247.041 115.802 248.663 121.237C248.663 121.655 248.663 122.491 247.852 122.491C247.852 122.491 247.852 122.491 247.446 122.491C247.041 122.491 246.635 122.073 246.635 121.655C245.418 117.056 241.362 114.13 236.9 114.13C236.494 114.13 236.088 114.13 235.683 114.13C235.277 114.13 234.871 113.712 234.871 113.294C234.871 112.875 235.277 112.039 235.683 112.039C235.683 112.039 236.088 112.039 236.9 112.039Z" fill="#472B29"/>
<path d="M42.1876 154.681H2.02825C0.811299 154.681 0 153.845 0 152.591C0 151.337 0.811299 150.501 2.02825 150.501H42.1876C43.4045 150.501 44.2158 151.337 44.2158 152.591C44.2158 153.845 43.4045 154.681 42.1876 154.681ZM54.7627 154.681H50.7062C49.4893 154.681 48.678 153.845 48.678 152.591C48.678 151.337 49.4893 150.501 50.7062 150.501H54.7627C55.9797 150.501 56.791 151.337 56.791 152.591C56.791 153.845 55.9797 154.681 54.7627 154.681ZM75.0452 163.042H38.5367C37.3198 163.042 36.5085 162.206 36.5085 160.952C36.5085 159.698 37.3198 158.862 38.5367 158.862H75.0452C76.2621 158.862 77.0734 159.698 77.0734 160.952C77.0734 162.206 76.2621 163.042 75.0452 163.042ZM30.4237 163.042H26.3672C25.1503 163.042 24.339 162.206 24.339 160.952C24.339 159.698 25.1503 158.862 26.3672 158.862H30.4237C31.6407 158.862 32.452 159.698 32.452 160.952C32.452 162.206 31.6407 163.042 30.4237 163.042ZM18.2542 163.042H10.1412C8.92429 163.042 8.11299 162.206 8.11299 160.952C8.11299 159.698 8.92429 158.862 10.1412 158.862H18.2542C19.4712 158.862 20.2825 159.698 20.2825 160.952C20.2825 162.206 19.4712 163.042 18.2542 163.042ZM42.5932 171.403H34.4802C33.2633 171.403 32.452 170.567 32.452 169.313C32.452 168.059 33.2633 167.223 34.4802 167.223H42.5932C43.8102 167.223 44.6215 168.059 44.6215 169.313C44.6215 170.567 43.8102 171.403 42.5932 171.403ZM54.7627 133.778C53.9514 133.778 51.5175 133.778 50.7062 133.778C49.4893 133.778 48.678 134.614 48.678 135.869C48.678 137.123 49.4893 137.959 50.7062 137.959C51.5175 137.959 53.9514 137.959 54.7627 137.959C55.9797 137.959 56.791 137.123 56.791 135.869C56.791 134.614 55.9797 133.778 54.7627 133.778ZM54.7627 142.139C53.9514 142.139 35.2915 142.139 34.4802 142.139C33.2633 142.139 32.452 142.976 32.452 144.23C32.452 145.484 33.2633 146.32 34.4802 146.32C35.2915 146.32 53.9514 146.32 54.7627 146.32C55.9797 146.32 56.791 145.484 56.791 144.23C56.791 142.976 55.9797 142.139 54.7627 142.139ZM75.0452 150.501C74.2339 150.501 63.687 150.501 62.8757 150.501C61.6588 150.501 60.8475 151.337 60.8475 152.591C60.8475 153.845 61.6588 154.681 62.8757 154.681C63.687 154.681 74.2339 154.681 75.0452 154.681C76.2621 154.681 77.0734 153.845 77.0734 152.591C77.0734 151.337 76.2621 150.501 75.0452 150.501ZM320.463 217.389H279.898C278.681 217.389 277.87 216.553 277.87 215.299C277.87 214.045 278.681 213.209 279.898 213.209H320.463C321.68 213.209 322.492 214.045 322.492 215.299C322.492 216.553 321.68 217.389 320.463 217.389ZM336.689 217.389H328.576C327.359 217.389 326.548 216.553 326.548 215.299C326.548 214.045 327.359 213.209 328.576 213.209H336.689C337.906 213.209 338.718 214.045 338.718 215.299C338.718 216.553 337.906 217.389 336.689 217.389ZM356.972 225.751H316.407C315.19 225.751 314.379 224.914 314.379 223.66C314.379 222.406 315.19 221.57 316.407 221.57H356.972C358.189 221.57 359 222.406 359 223.66C359 224.914 358.189 225.751 356.972 225.751ZM308.294 225.751H304.237C303.02 225.751 302.209 224.914 302.209 223.66C302.209 222.406 303.02 221.57 304.237 221.57H308.294C309.511 221.57 310.322 222.406 310.322 223.66C310.322 224.914 309.511 225.751 308.294 225.751ZM295.719 225.751H288.011C286.794 225.751 285.983 224.914 285.983 223.66C285.983 222.406 286.794 221.57 288.011 221.57H295.719C296.936 221.57 297.747 222.406 297.747 223.66C297.747 224.914 296.936 225.751 295.719 225.751ZM332.633 209.028H312.35C311.133 209.028 310.322 208.192 310.322 206.938C310.322 205.684 311.133 204.848 312.35 204.848H332.633C333.85 204.848 334.661 205.684 334.661 206.938C334.661 208.192 333.85 209.028 332.633 209.028ZM320.463 234.112H312.35C311.133 234.112 310.322 233.276 310.322 232.021C310.322 230.767 311.133 229.931 312.35 229.931H320.463C321.68 229.931 322.492 230.767 322.492 232.021C322.492 233.276 321.68 234.112 320.463 234.112Z" fill="white"/>
<path d="M159.826 247.907C144.817 247.907 128.185 239.546 128.185 220.733V116.637L116.422 102.424V88.6277C116.422 69.3972 124.535 61.4541 144.817 61.4541H240.956C260.833 61.4541 269.352 69.3972 269.352 88.6277V102.424L257.588 116.219V220.315C257.588 239.128 240.956 247.489 225.541 247.489H159.826V247.907Z" fill="#8B8BC1"/>
<path d="M240.55 64.3811C261.644 64.3811 266.106 73.5783 266.106 88.6283V89.4644V93.645V101.588L255.559 113.712L254.342 115.384V117.474V220.316C254.342 237.038 239.739 244.563 225.136 244.563H159.826C145.628 244.563 131.025 237.038 131.025 220.316V117.892V115.802L129.808 114.13L119.261 101.588V93.2269V89.0464V88.2103C119.261 73.1603 123.318 63.963 144.817 63.963L240.55 64.3811ZM240.55 58.5283H144.817C121.695 58.5283 113.582 68.9797 113.582 88.6283V89.4644V93.645V104.096L125.346 118.31V221.152C125.346 240.801 141.978 251.252 159.826 251.252H225.136C243.39 251.252 260.022 240.801 260.022 221.152V117.892L271.785 104.096V93.645V89.4644V88.6283C271.785 68.9797 264.078 58.5283 240.55 58.5283Z" fill="#472B29"/>
<path d="M170.779 173.075V120.818C170.779 117.055 174.024 114.129 178.081 114.129C182.137 114.129 185.382 117.055 185.382 120.818V171.821V213.208C185.382 216.971 182.137 219.897 178.081 219.897C174.024 219.897 170.779 216.971 170.779 213.208V204.847" fill="#6869AD"/>
<path d="M142.789 173.075V120.818C142.789 117.055 146.034 114.129 150.091 114.129C154.147 114.129 157.392 117.055 157.392 120.818V171.821V213.208C157.392 216.971 154.147 219.897 150.091 219.897C146.034 219.897 142.789 216.971 142.789 213.208V204.847" fill="#6869AD"/>
<path d="M199.174 173.493V120.818C199.174 117.055 202.42 114.129 206.476 114.129C210.533 114.129 213.778 117.055 213.778 120.818V171.821V213.626C213.778 217.389 210.533 220.315 206.476 220.315C202.42 220.315 199.174 217.389 199.174 213.626V204.847" fill="#6869AD"/>
<path d="M227.975 173.493V120.818C227.975 117.055 231.22 114.129 235.277 114.129C239.333 114.129 242.578 117.055 242.578 120.818V171.821V213.626C242.578 217.389 239.333 220.315 235.277 220.315C231.22 220.315 227.975 217.389 227.975 213.626V204.847" fill="#6869AD"/>
<path d="M235.277 114.965C238.522 114.965 241.362 117.056 241.362 119.982V172.239V214.881C241.362 217.389 238.522 219.897 235.277 219.897C232.032 219.897 229.192 217.807 229.192 214.881V206.101V173.911V119.982C229.192 117.056 232.032 114.965 235.277 114.965ZM235.277 112.875C230.815 112.875 227.164 116.219 227.164 119.982V173.493V205.683V214.463C227.164 218.225 230.815 221.569 235.277 221.569C239.739 221.569 243.39 218.225 243.39 214.463V172.239V119.982C243.39 116.219 239.739 112.875 235.277 112.875Z" fill="#472B29"/>
<path d="M150.091 221.569C146.034 221.569 142.789 218.225 142.789 213.626V196.486C142.789 196.068 143.194 195.232 144.006 195.232C144.817 195.232 145.223 195.65 145.223 196.486V213.626C145.223 216.971 147.657 219.479 150.496 219.479C153.336 219.479 155.77 216.971 155.77 213.626V120.818C155.77 117.474 153.336 114.965 150.496 114.965C147.657 114.965 145.223 117.474 145.223 120.818V154.263C145.223 154.681 144.817 155.517 144.006 155.517C143.194 155.517 142.789 155.099 142.789 154.263V120.818C142.789 116.638 146.034 112.875 150.091 112.875C154.147 112.875 157.392 116.219 157.392 120.818V213.626C157.392 218.225 154.147 221.569 150.091 221.569Z" fill="#472B29"/>
<path d="M206.882 114.965C210.127 114.965 212.966 117.056 212.966 119.982V172.239V214.881C212.966 217.389 210.127 219.897 206.882 219.897C203.636 219.897 200.797 217.807 200.797 214.881V206.101V173.911V119.982C200.797 117.056 203.636 114.965 206.882 114.965ZM206.882 112.875C202.419 112.875 198.769 116.219 198.769 119.982V173.493V205.683V214.463C198.769 218.225 202.419 221.569 206.882 221.569C211.344 221.569 214.995 218.225 214.995 214.463V172.239V119.982C214.995 116.219 211.344 112.875 206.882 112.875Z" fill="#472B29"/>
<path d="M178.486 114.965C181.731 114.965 184.571 117.056 184.571 119.982V172.239V214.881C184.571 217.389 181.731 219.897 178.486 219.897C175.241 219.897 172.401 217.807 172.401 214.881V206.101V173.911V119.982C172.401 117.056 175.241 114.965 178.486 114.965ZM178.486 112.875C174.024 112.875 170.373 116.219 170.373 119.982V173.493V205.683V214.463C170.373 218.225 174.024 221.569 178.486 221.569C182.948 221.569 186.599 218.225 186.599 214.463V172.239V119.982C186.599 116.219 182.948 112.875 178.486 112.875Z" fill="#472B29"/>
<path d="M124.129 132.106V160.533C119.261 160.533 115.205 157.189 115.205 153.427V139.213C115.205 135.032 119.261 132.106 124.129 132.106ZM129.808 126.253H124.129C116.016 126.253 109.526 132.106 109.526 139.213V153.427C109.526 160.533 116.016 166.386 124.129 166.386H129.808V126.253Z" fill="#472B29"/>
<path d="M261.239 132.106C266.106 132.106 270.163 135.45 270.163 139.213V153.427C270.163 157.189 266.106 160.533 261.239 160.533H260.833L261.239 132.106ZM261.239 126.253H255.154V166.386H261.239C269.352 166.386 275.842 160.533 275.842 153.427V139.213C275.842 132.106 269.352 126.253 261.239 126.253Z" fill="#472B29"/>
<path d="M210.533 47.6584C214.995 47.6584 219.051 52.2571 219.051 58.1098V58.5279H169.156V57.6918C169.156 52.2571 172.807 47.2404 177.675 47.2404H210.533M210.533 41.8057H177.269C169.562 41.8057 163.072 48.9126 163.072 58.1098V64.7987H224.325V58.1098C224.325 48.9126 218.24 41.8057 210.533 41.8057Z" fill="#472B29"/>
<path d="M265.701 103.677H115.61C115.205 103.677 114.393 103.259 114.393 102.423C114.393 101.587 114.799 101.169 115.61 101.169H265.701C266.106 101.169 266.918 101.587 266.918 102.423C266.918 103.259 266.106 103.677 265.701 103.677Z" fill="#472B29"/>
<path d="M237.305 78.5943H119.667C119.261 78.5943 118.45 78.1762 118.45 77.3401C118.45 76.504 118.855 76.0859 119.667 76.0859H237.305C237.711 76.0859 238.522 76.504 238.522 77.3401C238.522 78.1762 237.711 78.5943 237.305 78.5943Z" fill="#472B29"/>
<path d="M253.531 233.275H131.836C131.431 233.275 130.619 232.857 130.619 232.021C130.619 231.185 131.025 230.767 131.836 230.767H253.531C253.937 230.767 254.748 231.185 254.748 232.021C254.748 232.857 253.937 233.275 253.531 233.275Z" fill="#472B29"/>
<path d="M257.588 78.5943H245.418C245.012 78.5943 244.201 78.1762 244.201 77.3401C244.201 76.504 244.607 76.0859 245.418 76.0859H257.588C257.993 76.0859 258.805 76.504 258.805 77.3401C258.805 78.1762 257.993 78.5943 257.588 78.5943Z" fill="#472B29"/>
<path d="M144.006 183.944C143.6 183.944 142.789 183.526 142.789 182.69V168.058C142.789 167.64 143.194 166.804 144.006 166.804C144.817 166.804 145.223 167.222 145.223 168.058V182.69C144.817 183.526 144.411 183.944 144.006 183.944Z" fill="#472B29"/>
<path d="M269.757 91.9716H119.667C118.45 91.9716 117.638 91.1355 117.638 89.8813C117.638 88.6271 118.45 87.791 119.667 87.791H269.757C270.974 87.791 271.785 88.6271 271.785 89.8813C271.785 91.1355 270.974 91.9716 269.757 91.9716Z" fill="#472B29"/>
<path d="M147.251 236.201C147.251 236.201 153.741 236.201 161.449 236.201C169.156 236.201 175.647 229.512 175.647 221.569C175.647 214.044 170.373 208.191 163.071 206.937C163.071 206.101 163.477 205.265 163.477 204.847C163.477 196.904 156.987 190.215 149.279 190.215C145.223 190.215 141.166 192.305 138.732 195.231C137.11 187.706 130.619 181.854 122.912 181.854C113.988 181.854 106.686 189.379 106.686 198.576C106.686 199.412 106.686 200.248 107.092 201.084C105.469 199.83 103.035 198.576 100.601 198.576C95.7336 198.576 91.6771 202.338 90.4601 207.355C89.6488 207.355 88.8375 206.937 88.4319 206.937C80.7245 206.937 74.2341 213.626 74.2341 221.569C74.2341 229.512 80.7245 236.201 88.4319 236.201C96.1392 236.201 118.856 236.201 118.856 236.201V238.291H147.251V236.201Z" fill="#FDFCEF"/>
<path d="M154.147 217.389C153.741 217.389 152.93 216.971 152.93 216.135C152.93 211.118 156.987 206.938 161.854 206.938C161.854 206.938 164.694 206.937 166.722 207.356C167.128 207.356 167.533 208.192 167.533 208.61C167.533 209.028 166.722 209.446 166.316 209.446C164.694 209.028 162.26 209.028 162.26 209.028C158.609 209.028 155.364 212.372 155.364 216.135C155.364 216.971 154.553 217.389 154.147 217.389ZM126.968 234.111C126.431 234.111 125.915 234.331 125.534 234.723C125.154 235.115 124.94 235.647 124.94 236.201C124.94 236.756 125.154 237.287 125.534 237.679C125.915 238.071 126.431 238.292 126.968 238.292C127.506 238.292 128.022 238.071 128.403 237.679C128.783 237.287 128.997 236.756 128.997 236.201C128.997 235.647 128.783 235.115 128.403 234.723C128.022 234.331 127.506 234.111 126.968 234.111Z" fill="#472B29"/>
<path d="M161.449 238.291H147.251C146.034 238.291 145.223 237.455 145.223 236.201C145.223 234.947 146.034 234.111 147.251 234.111H161.449C168.345 234.111 173.618 228.676 173.618 221.569C173.618 215.298 169.156 209.864 163.071 209.028C162.666 209.028 161.854 208.61 161.854 208.191C161.854 207.773 161.449 207.355 161.449 206.519C161.449 205.683 161.449 205.265 161.449 204.429C161.449 197.322 156.175 191.887 149.279 191.887C146.034 191.887 142.789 193.56 140.355 196.068C139.949 196.486 139.138 196.904 138.327 196.486C137.515 196.486 137.11 195.65 136.704 194.814C135.487 188.125 129.402 183.108 122.912 183.108C115.205 183.108 108.714 189.797 108.714 197.74C108.714 198.158 108.714 198.994 108.714 199.412C108.714 200.248 108.309 201.085 107.903 201.503C107.497 201.921 106.28 201.921 105.469 201.503C103.846 200.248 102.224 199.83 100.601 199.83C96.5448 199.83 93.2996 202.757 92.4883 206.519C92.4883 207.773 91.2714 208.191 90.0544 208.191C89.2431 208.191 88.8375 208.191 88.0262 208.191C81.1301 208.191 75.8567 213.626 75.8567 220.733C75.8567 227.84 81.1301 233.275 88.0262 233.275H118.45C119.667 233.275 120.478 234.111 120.478 235.365C120.478 236.619 119.667 238.291 118.856 238.291H88.4318C79.5075 238.291 72.2058 230.766 72.2058 221.569C72.2058 212.372 79.5075 204.847 88.4318 204.847C88.8375 204.847 88.8375 204.847 89.2431 204.847C90.8657 199.83 95.3278 196.486 100.601 196.486C101.818 196.486 103.441 196.904 104.658 197.322C105.469 187.707 113.176 179.764 122.912 179.764C130.214 179.764 137.11 184.362 139.949 191.469C142.789 189.379 146.034 188.125 149.279 188.125C158.204 188.125 165.505 195.65 165.505 204.847V205.265C172.401 206.937 177.675 213.626 177.675 221.569C177.675 230.766 170.373 238.291 161.449 238.291Z" fill="#472B29"/>
<path d="M139.138 234.111C138.327 234.111 135.893 234.111 135.081 234.111C133.865 234.111 133.053 234.947 133.053 236.202C133.053 237.456 133.865 238.292 135.081 238.292C135.893 238.292 138.327 238.292 139.138 238.292C140.355 238.292 141.166 237.456 141.166 236.202C141.166 234.947 139.949 234.111 139.138 234.111Z" fill="#472B29"/>
</svg>
