<svg width="232" height="232" viewBox="0 0 232 232" fill="none" xmlns="http://www.w3.org/2000/svg">
<path d="M43.558 212.083L23.2 69.6H208.8L188.442 212.083C187.652 217.611 184.894 222.669 180.675 226.328C176.456 229.986 171.059 232 165.474 232H66.526C60.9415 232 55.5442 229.986 51.3251 226.328C47.106 222.669 44.3482 217.611 43.558 212.083ZM220.4 23.2H162.4V11.6C162.4 8.52349 161.178 5.57298 159.002 3.39756C156.827 1.22214 153.877 0 150.8 0H81.2C78.1235 0 75.173 1.22214 72.9976 3.39756C70.8222 5.57298 69.6 8.52349 69.6 11.6V23.2H11.6C8.52349 23.2 5.57298 24.4221 3.39756 26.5976C1.22214 28.773 0 31.7235 0 34.8C0 37.8765 1.22214 40.827 3.39756 43.0024C5.57298 45.1779 8.52349 46.4 11.6 46.4H220.4C223.477 46.4 226.427 45.1779 228.602 43.0024C230.778 40.827 232 37.8765 232 34.8C232 31.7235 230.778 28.773 228.602 26.5976C226.427 24.4221 223.477 23.2 220.4 23.2Z" fill="#EB0F0F"/>
</svg>
