<svg width="62" height="70" viewBox="0 0 62 70" fill="none" xmlns="http://www.w3.org/2000/svg">
<path d="M12.7375 55.4167H16.3677L41.2692 26.9063L37.639 22.75L12.7375 51.2604V55.4167ZM7.64258 61.25V48.8542L41.2692 10.4271C41.7787 9.89236 42.3412 9.47917 42.9569 9.1875C43.5725 8.89583 44.22 8.75 44.8993 8.75C45.5786 8.75 46.2367 8.89583 46.8736 9.1875C47.5105 9.47917 48.0624 9.91667 48.5294 10.5L52.0322 14.5833C52.5417 15.1181 52.9132 15.75 53.1467 16.4792C53.3803 17.2083 53.497 17.9375 53.497 18.6667C53.497 19.4444 53.3803 20.1858 53.1467 20.8906C52.9132 21.5955 52.5417 22.2396 52.0322 22.8229L18.4693 61.25H7.64258ZM39.4222 24.8646L37.639 22.75L41.2692 26.9063L39.4222 24.8646Z" fill="#279427"/>
</svg>
