<?xml version="1.0" encoding="utf-8"?>
<!-- Svg Vector Icons : http://www.onlinewebfonts.com/icon -->
<!DOCTYPE svg PUBLIC "-//W3C//DTD SVG 1.1//EN" "http://www.w3.org/Graphics/SVG/1.1/DTD/svg11.dtd">
<svg version="1.1" xmlns="http://www.w3.org/2000/svg" xmlns:xlink="http://www.w3.org/1999/xlink" x="0px" y="0px" viewBox="0 0 256 256" enable-background="new 0 0 256 256" xml:space="preserve">
<metadata> Svg Vector Icons : http://www.onlinewebfonts.com/icon </metadata>
    <g> <path fill="PLACEHOLDER_COLOR_1" d="M192.8,28.7h-17.3c-2.2,0-3.9-1.8-3.9-3.9v-8.2c0-2.2,1.8-3.9,3.9-3.9h17.3c2.2,0,3.9,1.8,3.9,3.9v8.2 C196.8,27,195,28.7,192.8,28.7z"/> <path fill="PLACEHOLDER_COLOR_2" d="M192.8,31.4h-17.3c-3.6,0-6.6-3-6.6-6.6v-8.2c0-3.6,3-6.6,6.6-6.6h17.3c3.6,0,6.6,3,6.6,6.6v8.2 C199.4,28.4,196.5,31.4,192.8,31.4z M175.5,15.3c-0.7,0-1.3,0.6-1.3,1.3v8.2c0,0.7,0.6,1.3,1.3,1.3h17.3c0.7,0,1.3-0.6,1.3-1.3 v-8.2c0-0.7-0.6-1.3-1.3-1.3H175.5z"/> <path fill="PLACEHOLDER_COLOR_1" d="M153.4,28.7h-17.3c-2.2,0-3.9-1.8-3.9-3.9v-8.2c0-2.2,1.8-3.9,3.9-3.9h17.3c2.2,0,3.9,1.8,3.9,3.9v8.2 C157.4,27,155.6,28.7,153.4,28.7z"/> <path fill="PLACEHOLDER_COLOR_2" d="M153.4,31.4h-17.3c-3.6,0-6.6-3-6.6-6.6v-8.2c0-3.6,3-6.6,6.6-6.6h17.3c3.6,0,6.6,3,6.6,6.6v8.2 C160,28.4,157,31.4,153.4,31.4z M136.1,15.3c-0.7,0-1.3,0.6-1.3,1.3v8.2c0,0.7,0.6,1.3,1.3,1.3h17.3c0.7,0,1.3-0.6,1.3-1.3v-8.2 c0-0.7-0.6-1.3-1.3-1.3H136.1z"/> <path fill="PLACEHOLDER_COLOR_3" d="M195.3,243.4H60.7c-8.6,0-15.7-7.1-15.7-15.7V38.5c0-8.6,7.1-15.7,15.7-15.7h134.6 c8.6,0,15.7,7.1,15.7,15.7v189.1C211,236.3,204,243.4,195.3,243.4z"/> <path fill="PLACEHOLDER_COLOR_2" d="M195.3,246H60.7c-10.1,0-18.3-8.2-18.3-18.3V38.5c0-10.1,8.2-18.3,18.3-18.3h134.6 c10.1,0,18.3,8.2,18.3,18.3v189.1C213.6,237.8,205.4,246,195.3,246z M60.7,25.4c-7.2,0-13.1,5.9-13.1,13.1v189.1 c0,7.2,5.9,13.1,13.1,13.1h134.6c7.2,0,13.1-5.9,13.1-13.1V38.5c0-7.2-5.9-13.1-13.1-13.1H60.7z"/> <path fill="#ffffff" d="M191.8,119.1H64.2c-2.2,0-3.9-1.8-3.9-3.9v-6.8c0-37.3,30.5-67.8,67.8-67.8c37.3,0,67.8,30.5,67.8,67.8v6.8 C195.8,117.4,194,119.1,191.8,119.1z"/> <path fill="PLACEHOLDER_COLOR_2" d="M191.8,121.8H64.2c-3.6,0-6.6-3-6.6-6.6v-6.8c0-18.7,7.3-36.4,20.7-49.7C91.6,45.3,109.3,38,128,38 c18.7,0,36.4,7.3,49.8,20.6c13.3,13.3,20.7,31,20.7,49.7v6.8C198.4,118.8,195.5,121.8,191.8,121.8z M128,43.2 c-35.9,0-65.2,29.2-65.2,65.2v6.8c0,0.7,0.6,1.3,1.3,1.3h127.7c0.7,0,1.3-0.6,1.3-1.3v-6.8C193.1,72.4,163.9,43.2,128,43.2z"/> <path fill="PLACEHOLDER_COLOR_1" d="M97.3,181.2c0,17,13.8,30.7,30.7,30.7c17,0,30.7-13.8,30.7-30.7l0,0c0-17-13.8-30.7-30.7-30.7 C111,150.5,97.3,164.3,97.3,181.2z"/> <path fill="PLACEHOLDER_COLOR_2" d="M128,214.6c-18.4,0-33.4-15-33.4-33.4s15-33.4,33.4-33.4s33.4,15,33.4,33.4S146.4,214.6,128,214.6z  M128,153.1c-15.5,0-28.1,12.6-28.1,28.1c0,15.5,12.6,28.1,28.1,28.1c15.5,0,28.1-12.6,28.1-28.1 C156.1,165.7,143.5,153.1,128,153.1z"/> <path fill="#ffffff" d="M109.6,190.1l9.5,9.5l22.2-22.2l3.1-12.6l-12.6,3.1L109.6,190.1z"/> <path fill="PLACEHOLDER_COLOR_2" d="M119.1,202.2c-0.7,0-1.4-0.3-1.9-0.8l-9.5-9.5c-1-1-1-2.7,0-3.7L130,166c0.3-0.3,0.8-0.6,1.2-0.7l12.6-3.1 c0.9-0.2,1.8,0,2.5,0.7c0.7,0.7,0.9,1.6,0.7,2.5l-3.1,12.6c-0.1,0.5-0.4,0.9-0.7,1.2L121,201.5C120.5,202,119.8,202.2,119.1,202.2z  M113.3,190.1l5.8,5.8L139,176l1.9-7.7l-7.7,1.8L113.3,190.1z"/> <path fill="PLACEHOLDER_COLOR_1" d="M128.2,105.8l7.9-36"/> <path fill="PLACEHOLDER_COLOR_2" d="M128.2,107.1c-0.1,0-0.2,0-0.3,0c-0.7-0.2-1.2-0.9-1-1.6l7.9-36c0.2-0.7,0.9-1.1,1.6-1 c0.7,0.2,1.2,0.9,1,1.6l-7.9,36C129.3,106.7,128.8,107.1,128.2,107.1L128.2,107.1z"/> <path fill="PLACEHOLDER_COLOR_1" d="M122.1,105.5c0,3.3,2.6,5.9,5.9,5.9c3.3,0,5.9-2.6,5.9-5.9c0-3.3-2.6-5.9-5.9-5.9 C124.8,99.6,122.1,102.2,122.1,105.5z"/> <path fill="PLACEHOLDER_COLOR_2" d="M128,112.7c-4,0-7.2-3.3-7.2-7.2c0-4,3.3-7.2,7.2-7.2s7.2,3.3,7.2,7.2C135.2,109.5,132,112.7,128,112.7z  M128,100.9c-2.5,0-4.6,2.1-4.6,4.6c0,2.5,2.1,4.6,4.6,4.6s4.6-2.1,4.6-4.6C132.6,102.9,130.5,100.9,128,100.9z"/> <path fill="PLACEHOLDER_COLOR_2" d="M189,110.9c-0.7,0-1.3-0.6-1.3-1.3c0-32.9-26.8-59.7-59.7-59.7c-25.2,0-47.9,16-56.3,39.8 c-2.3,6.4-3.4,13.1-3.4,19.9c0,0.7-0.6,1.3-1.3,1.3c-0.7,0-1.3-0.6-1.3-1.3c0-7.1,1.2-14.1,3.5-20.8C78,63.9,101.6,47.2,128,47.2 c34.4,0,62.3,28,62.3,62.3C190.3,110.3,189.7,110.9,189,110.9z"/> <path fill="PLACEHOLDER_COLOR_2" d="M128,67.6c-1.4,0-2.6-1.2-2.6-2.6v-7.9c0-1.4,1.2-2.6,2.6-2.6c1.4,0,2.6,1.2,2.6,2.6V65 C130.6,66.5,129.5,67.6,128,67.6z M83.6,109.8h-7.9c-1.4,0-2.6-1.2-2.6-2.6s1.2-2.6,2.6-2.6h7.9c1.4,0,2.6,1.2,2.6,2.6 S85,109.8,83.6,109.8z M180.3,109.8h-7.9c-1.4,0-2.6-1.2-2.6-2.6s1.2-2.6,2.6-2.6h7.9c1.4,0,2.6,1.2,2.6,2.6 S181.7,109.8,180.3,109.8z M159.4,78.4c-0.7,0-1.3-0.3-1.9-0.8c-1-1-1-2.7,0-3.7l5.6-5.6c1-1,2.7-1,3.7,0c1,1,1,2.7,0,3.7l-5.6,5.6 C160.7,78.1,160.1,78.4,159.4,78.4z M96.6,78.4c-0.7,0-1.3-0.3-1.9-0.8l-5.6-5.6c-1-1-1-2.7,0-3.7s2.7-1,3.7,0l5.6,5.6 c1,1,1,2.7,0,3.7C97.9,78.1,97.3,78.4,96.6,78.4z"/> <path fill="#ffffff" d="M128.2,134.5v5"/> <path fill="PLACEHOLDER_COLOR_2" d="M128.2,142.1c-1.4,0-2.6-1.2-2.6-2.6v-5c0-1.4,1.2-2.6,2.6-2.6c1.4,0,2.6,1.2,2.6,2.6v5 C130.8,141,129.6,142.1,128.2,142.1z"/> <path fill="#ffffff" d="M128.2,227.9v-5"/> <path fill="PLACEHOLDER_COLOR_2" d="M128.2,230.5c-1.4,0-2.6-1.2-2.6-2.6v-5c0-1.4,1.2-2.6,2.6-2.6c1.4,0,2.6,1.2,2.6,2.6v5 C130.8,229.3,129.6,230.5,128.2,230.5z"/> <path fill="#ffffff" d="M81.5,181.2h5"/> <path fill="PLACEHOLDER_COLOR_2" d="M86.5,183.9h-5c-1.4,0-2.6-1.2-2.6-2.6c0-1.4,1.2-2.6,2.6-2.6h5c1.4,0,2.6,1.2,2.6,2.6 C89.1,182.7,87.9,183.9,86.5,183.9z"/> <path fill="#ffffff" d="M174.8,181.2h-5"/> <path fill="PLACEHOLDER_COLOR_2" d="M174.8,183.9h-5c-1.4,0-2.6-1.2-2.6-2.6c0-1.4,1.2-2.6,2.6-2.6h5c1.4,0,2.6,1.2,2.6,2.6 C177.5,182.7,176.3,183.9,174.8,183.9z"/> <path fill="#ffffff" d="M95.2,148.2l3.5,3.5"/> <path fill="PLACEHOLDER_COLOR_2" d="M98.7,154.4c-0.7,0-1.3-0.3-1.9-0.8l-3.5-3.5c-1-1-1-2.7,0-3.7c1-1,2.7-1,3.7,0l3.5,3.5c1,1,1,2.7,0,3.7 C100.1,154.1,99.4,154.4,98.7,154.4z"/> <path fill="#ffffff" d="M161.2,214.2l-3.5-3.5"/> <path fill="PLACEHOLDER_COLOR_2" d="M161.2,216.9c-0.7,0-1.3-0.3-1.9-0.8l-3.5-3.5c-1-1-1-2.7,0-3.7c1-1,2.7-1,3.7,0l3.5,3.5c1,1,1,2.7,0,3.7 C162.5,216.6,161.9,216.9,161.2,216.9z"/> <path fill="#ffffff" d="M95.2,214.2l3.5-3.5"/> <path fill="PLACEHOLDER_COLOR_2" d="M95.2,216.9c-0.7,0-1.3-0.3-1.9-0.8c-1-1-1-2.7,0-3.7l3.5-3.5c1-1,2.7-1,3.7,0c1,1,1,2.7,0,3.7l-3.5,3.5 C96.5,216.6,95.8,216.9,95.2,216.9z"/> <path fill="#ffffff" d="M161.2,148.2l-3.5,3.5"/> <path fill="PLACEHOLDER_COLOR_2" d="M157.7,154.4c-0.7,0-1.3-0.3-1.9-0.8c-1-1-1-2.7,0-3.7l3.5-3.5c1-1,2.7-1,3.7,0c1,1,1,2.7,0,3.7l-3.5,3.5 C159,154.1,158.3,154.4,157.7,154.4L157.7,154.4z"/> <path fill="#ffffff" d="M179.9,141.8c0,4.8,3.9,8.7,8.7,8.7c4.8,0,8.7-3.9,8.7-8.7c0-4.8-3.9-8.7-8.7-8.7 C183.8,133.1,179.9,137,179.9,141.8z"/> <path fill="PLACEHOLDER_COLOR_2" d="M188.6,153.1c-6.2,0-11.3-5.1-11.3-11.3s5.1-11.3,11.3-11.3c6.2,0,11.3,5.1,11.3,11.3 S194.9,153.1,188.6,153.1z M188.6,135.7c-3.4,0-6.1,2.7-6.1,6.1c0,3.4,2.7,6.1,6.1,6.1c3.4,0,6.1-2.7,6.1-6.1 C194.7,138.4,192,135.7,188.6,135.7z"/> <path fill="PLACEHOLDER_COLOR_1" d="M72.8,155.4h-7.1c-2.2,0-3.9-1.8-3.9-3.9V137c0-2.2,1.8-3.9,3.9-3.9h7.1c2.2,0,3.9,1.8,3.9,3.9v14.5 C76.7,153.7,74.9,155.4,72.8,155.4z"/> <path fill="PLACEHOLDER_COLOR_2" d="M72.8,158.1h-7.1c-3.6,0-6.6-3-6.6-6.6V137c0-3.6,3-6.6,6.6-6.6h7.1c3.6,0,6.6,3,6.6,6.6v14.5 C79.4,155.1,76.4,158.1,72.8,158.1z M65.7,135.7c-0.7,0-1.3,0.6-1.3,1.3v14.5c0,0.7,0.6,1.3,1.3,1.3h7.1c0.7,0,1.3-0.6,1.3-1.3V137 c0-0.7-0.6-1.3-1.3-1.3H65.7z"/></g>
</svg>