<?xml version="1.0" encoding="utf-8"?><!-- Uploaded to: SVG Repo, www.svgrepo.com, Generator: SVG Repo Mixer Tools -->

<svg width="200px" height="200px" viewBox="0 0 76 79" fill="none" xmlns="http://www.w3.org/2000/svg">
<path fill-rule="evenodd" clip-rule="evenodd" d="M66.7968 35.8803V65.806C66.7968 66.3054 66.3886 66.6896 65.9433 66.6896H10.6875C10.205 66.6896 9.83395 66.267 9.83395 65.806V35.8803L36.8496 16.4805C37.666 15.9043 39.0761 15.9427 39.9297 16.5573L66.8711 35.8803H66.834H66.7968Z" fill="ICON_COLOR_1"/>
<path d="M62.0469 22.1274H14.5469V54.3196H62.0469V22.1274Z" fill="#E8E8D0"/>
<path fill-rule="evenodd" clip-rule="evenodd" d="M41.5996 46.0984C40.4863 47.443 38.9277 48.3649 37.1835 48.3649C37.0722 48.3649 36.9609 48.3649 36.8125 48.3649C35.2168 48.2497 33.8808 47.3661 32.9531 46.0216C32.0625 44.7539 31.6171 43.2173 31.5429 41.6806V41.1044C31.5429 40.8739 31.5429 40.6434 31.58 40.4129C31.7285 38.4537 32.3964 36.4945 33.621 34.9963C34.7714 33.6134 36.33 32.6146 38.1484 32.6146C38.2597 32.6146 38.371 32.6146 38.5195 32.6146C39.8925 32.7298 41.1171 33.4213 42.0078 34.4585L42.1191 32.6146L44.2714 32.7298L43.5664 44.6002C43.5293 45.2149 43.7519 45.7527 44.2343 46.0984C44.4941 46.2905 44.791 46.3289 45.0878 46.3289C46.832 46.2521 48.2421 44.7155 48.9101 43.1404C49.6523 41.4501 49.875 39.1452 49.4296 37.3781C49.4296 37.3397 49.4296 37.3397 49.4296 37.3013C48.9101 35.3421 47.9082 33.5366 46.498 32.0768C44.3828 29.8871 41.5253 28.6578 38.4824 28.6578C35.4765 28.6578 32.6191 29.8871 30.4668 32.0768C28.3515 34.2665 27.164 37.2244 27.164 40.3745C27.164 43.4862 28.3515 46.4442 30.4668 48.6723C32.582 50.8619 35.4394 52.0912 38.4824 52.0912C40.8945 52.0912 43.2324 51.3229 45.1621 49.8247L46.0156 49.1717V51.9376L45.7558 52.0912C43.5664 53.551 41.0429 54.3193 38.4453 54.3193C34.8457 54.3193 31.4687 52.8596 28.9082 50.2473C26.3847 47.635 24.9746 44.1008 24.9746 40.3745C24.9746 36.6482 26.3847 33.1524 28.9082 30.5017C31.4316 27.8895 34.8457 26.4297 38.4453 26.4297C42.0449 26.4297 45.4218 27.8895 47.9824 30.5017C49.6523 32.2304 50.8398 34.3817 51.4707 36.725C51.4707 36.7635 51.4707 36.7635 51.4707 36.7635C51.9531 39.03 51.8046 41.7575 50.8769 43.8703C49.8378 46.2521 47.7597 48.4034 45.0878 48.5186C44.3085 48.557 43.5664 48.3649 42.9355 47.904C42.2675 47.443 41.8593 46.7515 41.5996 46.0216V46.0984ZM33.6953 41.2965C33.7324 42.4874 34.0293 43.7167 34.6972 44.6771C35.2539 45.4454 36.0332 46.0216 36.998 46.0984C37.0722 46.0984 37.1464 46.0984 37.1835 46.0984C38.3339 46.0984 39.3359 45.4069 40.041 44.5234C40.9687 43.3709 41.4882 41.8727 41.5996 40.3745C41.5996 40.1824 41.5996 39.9904 41.5996 39.8367V39.6446C41.5625 38.4537 41.2656 37.2244 40.5976 36.2641C40.041 35.4957 39.2617 34.9195 38.2968 34.8427C38.2226 34.8427 38.1484 34.8427 38.1113 34.8427C36.9609 34.8427 35.9589 35.5342 35.2539 36.4177C34.3261 37.5702 33.8066 39.0684 33.6953 40.5666C33.6953 40.7587 33.6953 40.9507 33.6953 41.1044V41.2965Z" fill="#37474F"/>
<path fill-rule="evenodd" clip-rule="evenodd" d="M9.94534 66.2665L32.5078 50.2857L9.79691 35.8799V65.7671C9.79691 65.9592 9.83401 66.1129 9.94534 66.2281V66.2665Z" fill="ICON_COLOR_2"/>
<path fill-rule="evenodd" clip-rule="evenodd" d="M66.7969 65.8056V35.8799H66.7598L43.9004 50.4009L66.6484 66.2665C66.7226 66.1129 66.7969 65.9592 66.7969 65.8056Z" fill="ICON_COLOR_3"/>
<path fill-rule="evenodd" clip-rule="evenodd" d="M66.6856 66.2669C66.5371 66.5358 66.2403 66.6894 65.9434 66.6894H10.6875C10.3907 66.6894 10.0938 66.5358 9.94534 66.2669L36.8125 46.9439C37.6289 46.3676 39.002 46.4061 39.8926 47.0207L66.6856 66.2669Z" fill="ICON_COLOR_4"/>
</svg>
