<svg width="1027" height="1057" viewBox="0 0 1027 1057" fill="none" xmlns="http://www.w3.org/2000/svg">
<path fill-rule="evenodd" clip-rule="evenodd" d="M740.173 -31C678.396 298.169 393.335 547 51.0105 547C25.8952 547 1.08816 545.661 -23.3451 543.048L-23.3451 69C-23.3451 13.7716 21.4264 -31 76.6549 -31H740.173Z" fill="url(#paint0_linear_40_277)"/>
<path fill-rule="evenodd" clip-rule="evenodd" d="M387.426 -25.6406C506.497 38.4865 643.129 112.072 712.471 337.627C727.199 385.535 721.423 457.138 715.006 536.68C702.311 694.026 687.111 882.437 823.172 979.949C891.022 1028.58 972.081 1052.32 1048 1055.73V60.8625C1048 5.63408 1003.23 -39.1375 948 -39.1375H362.488C370.693 -34.6522 379.015 -30.17 387.426 -25.6406Z" fill="url(#paint1_linear_40_277)"/>
<path d="M712.471 337.627L711.993 337.774L711.993 337.774L712.471 337.627ZM387.426 -25.6406L387.188 -25.2003L387.188 -25.2003L387.426 -25.6406ZM715.006 536.68L714.507 536.64L714.507 536.64L715.006 536.68ZM823.172 979.949L822.881 980.356L822.881 980.356L823.172 979.949ZM1048 1055.73L1047.98 1056.23L1048.5 1056.26V1055.73H1048ZM362.488 -39.1375V-39.6375L362.248 -38.6987L362.488 -39.1375ZM712.949 337.48C678.253 224.622 626.714 149.762 568.94 95.0944C511.176 40.436 447.193 5.97996 387.663 -26.0808L387.188 -25.2003C446.729 6.86597 510.598 41.266 568.253 95.8207C625.899 150.366 677.347 225.076 711.993 337.774L712.949 337.48ZM715.504 536.72C718.712 496.954 721.762 459.149 722.168 425.297C722.573 391.449 720.336 361.509 712.949 337.48L711.993 337.774C719.334 361.653 721.573 391.469 721.168 425.285C720.763 459.096 717.716 496.864 714.507 536.64L715.504 536.72ZM823.463 979.543C755.581 930.893 725.409 859.56 713.8 780.68C702.189 701.786 709.156 615.405 715.504 536.72L714.507 536.64C708.161 615.301 701.18 701.799 712.811 780.825C724.444 859.865 754.702 931.494 822.881 980.356L823.463 979.543ZM1048.02 1055.23C972.187 1051.83 891.224 1028.11 823.463 979.543L822.881 980.356C890.819 1029.05 971.976 1052.82 1047.98 1056.23L1048.02 1055.23ZM1047.5 60.8625V1055.73H1048.5V60.8625H1047.5ZM948 -38.6375C1002.95 -38.6375 1047.5 5.91022 1047.5 60.8625H1048.5C1048.5 5.35793 1003.5 -39.6375 948 -39.6375V-38.6375ZM362.488 -38.6375H948V-39.6375H362.488V-38.6375ZM387.663 -26.0808C379.252 -30.6103 370.931 -35.0918 362.727 -39.5762L362.248 -38.6987C370.454 -34.2126 378.778 -29.7296 387.188 -25.2003L387.663 -26.0808Z" fill="#A1AEFF"/>
<ellipse cx="527.093" cy="558.532" rx="182.497" ry="131.899" transform="rotate(-4.40694 527.093 558.532)" fill="PLACEHOLDER_COLOR_1" fill-opacity="0.67"/>
<defs>
<linearGradient id="paint0_linear_40_277" x1="358.414" y1="-31" x2="358.414" y2="547" gradientUnits="userSpaceOnUse">
<stop stop-color="PLACEHOLDER_COLOR_2"/>
<stop offset="1" stop-color="PLACEHOLDER_COLOR_3"/>
</linearGradient>
<linearGradient id="paint1_linear_40_277" x1="705.244" y1="-39.1375" x2="705.244" y2="1055.73" gradientUnits="userSpaceOnUse">
<stop stop-color="PLACEHOLDER_COLOR_4"/>
<stop offset="1" stop-color="PLACEHOLDER_COLOR_5"/>
</linearGradient>
</defs>
</svg>
