<svg width="75" height="75" viewBox="0 0 75 75" fill="none" xmlns="http://www.w3.org/2000/svg">
<path fill-rule="evenodd" clip-rule="evenodd" d="M37.0291 9.375C45.4639 9.375 52.3009 16.5723 52.3009 25.4504C52.3009 34.3292 45.4639 41.5265 37.0291 41.5265C28.5949 41.5265 21.7574 34.3292 21.7574 25.4504C21.7574 16.5723 28.5949 9.375 37.0291 9.375Z" fill="#471E00"/>
<path fill-rule="evenodd" clip-rule="evenodd" d="M37.541 16.0977C44.2778 16.0977 49.5697 20.1285 48.7257 29.7891C48.4855 32.5391 50.9093 31.0866 50.9093 32.0802C50.9093 40.284 44.6954 46.9345 37.0291 46.9345C29.3639 46.9345 23.1492 40.284 23.1492 32.0802C24.7853 34.7066 25.0357 31.3751 24.962 29.8389C24.3571 17.2624 30.4787 16.0977 37.541 16.0977Z" fill="#FAD3A8"/>
<path d="M39.6658 34.2494L38.9447 33.4424L38.9639 33.4225L38.9839 33.4038L39.0045 33.3865L39.0257 33.3704L39.0474 33.3557L39.0696 33.3423L39.0923 33.3301L39.1153 33.3193L39.1388 33.3097L39.1625 33.3015L39.1865 33.2946L39.2107 33.2889L39.2351 33.2846L39.2596 33.2815L39.2842 33.2798L39.3088 33.2793L39.3335 33.2802L39.3581 33.2823L39.3826 33.2857L39.4069 33.2905L39.431 33.2965L39.4549 33.3038L39.4786 33.3124L39.5018 33.3223L39.5248 33.3335L39.5473 33.346L39.5693 33.3598L39.5908 33.3749L39.6118 33.3912L39.6322 33.4089L39.6519 33.4279L39.6709 33.4481L39.689 33.4694L39.7059 33.4914L39.7216 33.5142L39.7362 33.5375L39.7495 33.5615L39.7617 33.586L39.7727 33.611L39.7825 33.6364L39.7912 33.6623L39.7986 33.6885L39.8049 33.7149L39.81 33.7417L39.814 33.7686L39.8167 33.7956L39.8183 33.8228L39.8188 33.8499L39.818 33.8771L39.816 33.9043L39.8129 33.9313L39.8086 33.9581L39.8032 33.9848L39.7966 34.0111L39.7887 34.0372L39.7798 34.0629L39.7696 34.0882L39.7583 34.113L39.7458 34.1373L39.7321 34.1611L39.7173 34.1842L39.7013 34.2067L39.6841 34.2284L39.6658 34.2494ZM34.3929 34.2494L35.114 33.4424L35.2148 33.5466L35.319 33.6439L35.4266 33.7344L35.5373 33.8182L35.6509 33.8953L35.7673 33.9657L35.8862 34.0294L36.0073 34.0865L36.1305 34.1369L36.2555 34.1806L36.382 34.2176L36.5099 34.2479L36.6388 34.2715L36.7685 34.2884L36.8988 34.2985L37.0293 34.3018L37.1598 34.2985L37.2901 34.2884L37.4198 34.2715L37.5487 34.2479L37.6766 34.2176L37.8031 34.1806L37.9282 34.1369L38.0513 34.0865L38.1724 34.0294L38.2913 33.9657L38.4077 33.8953L38.5213 33.8182L38.6321 33.7344L38.7396 33.6439L38.8439 33.5466L38.9447 33.4424L39.6658 34.2494L39.527 34.3929L39.383 34.5273L39.2342 34.6524L39.081 34.7684L38.9238 34.875L38.763 34.9724L38.5988 35.0604L38.4317 35.1391L38.2619 35.2086L38.09 35.2687L37.9161 35.3196L37.7407 35.3612L37.5639 35.3935L37.3862 35.4166L37.208 35.4304L37.0293 35.4351L36.8506 35.4304L36.6724 35.4166L36.4947 35.3935L36.318 35.3612L36.1425 35.3196L35.9686 35.2687L35.7967 35.2086L35.627 35.1391L35.4598 35.0604L35.2957 34.9724L35.1348 34.875L34.9776 34.7684L34.8244 34.6524L34.6756 34.5273L34.5316 34.3929L34.3929 34.2494ZM35.114 33.4424L34.3929 34.2494L34.3745 34.2284L34.3573 34.2066L34.3413 34.1842L34.3265 34.161L34.3128 34.1373L34.3003 34.113L34.289 34.0881L34.2788 34.0628L34.2699 34.0371L34.2621 34.0111L34.2554 33.9847L34.25 33.9581L34.2457 33.9312L34.2426 33.9042L34.2406 33.8771L34.2399 33.8499L34.2403 33.8227L34.2419 33.7956L34.2447 33.7685L34.2486 33.7416L34.2537 33.7149L34.26 33.6884L34.2675 33.6623L34.2761 33.6364L34.2859 33.611L34.297 33.586L34.3091 33.5615L34.3225 33.5375L34.337 33.5141L34.3527 33.4914L34.3696 33.4694L34.3877 33.4481L34.4067 33.4279L34.4265 33.4089L34.4468 33.3913L34.4678 33.3749L34.4893 33.3598L34.5114 33.346L34.5339 33.3335L34.5568 33.3223L34.5801 33.3124L34.6037 33.3038L34.6276 33.2965L34.6517 33.2905L34.6761 33.2857L34.7006 33.2823L34.7251 33.2802L34.7498 33.2793L34.7744 33.2798L34.799 33.2815L34.8235 33.2846L34.8479 33.2889L34.8721 33.2946L34.8962 33.3015L34.9199 33.3098L34.9433 33.3193L34.9664 33.3302L34.989 33.3423L35.0112 33.3557L35.033 33.3705L35.0541 33.3865L35.0747 33.4039L35.0947 33.4225L35.114 33.4424Z" fill="#C99154"/>
<path fill-rule="evenodd" clip-rule="evenodd" d="M41.703 13.8824C47.075 16.2595 51.43 19.7735 51.43 21.7313C51.43 23.689 47.075 23.3491 41.703 20.972C36.3312 18.5949 31.9764 15.0809 31.9764 13.1231C31.9764 11.1654 36.3312 11.5051 41.703 13.8824Z" fill="#471E00"/>
<path fill-rule="evenodd" clip-rule="evenodd" d="M21.3411 27.0249C22.1082 26.662 23.3218 28.0956 24.0509 30.2268C24.7803 32.3584 24.7495 34.3804 23.9819 34.7431C23.2145 35.1061 22.0015 33.6725 21.2724 31.5413C20.5424 29.4094 20.5737 27.3877 21.3411 27.0249Z" fill="#FAD3A8"/>
<path fill-rule="evenodd" clip-rule="evenodd" d="M52.5326 27.0249C51.5368 26.662 50.212 28.0956 49.5741 30.2268C48.9361 32.3584 49.2271 34.3804 50.2235 34.7431C51.2196 35.1061 52.5441 33.6725 53.1818 31.5413C53.8196 29.4094 53.5286 27.3877 52.5326 27.0249Z" fill="#FAD3A8"/>
<path fill-rule="evenodd" clip-rule="evenodd" d="M27.4698 15.1859C24.4805 17.273 24.33 20.866 24.33 21.9038C24.33 22.942 26.7535 22.0919 29.7428 20.0046C32.7323 17.9173 35.1559 15.3839 35.1559 14.3457C35.1559 13.3074 30.4593 13.0986 27.4698 15.1859Z" fill="#471E00"/>
<path fill-rule="evenodd" clip-rule="evenodd" d="M30.6969 56.5968H43.3615V36.7646H30.6969V56.5968Z" fill="#E6B683"/>
<path fill-rule="evenodd" clip-rule="evenodd" d="M37.0291 9.375C45.4639 9.375 52.3009 16.5723 52.3009 25.4504C52.3009 34.3292 45.4639 41.5265 37.0291 41.5265C28.5949 41.5265 21.7574 34.3292 21.7574 25.4504C21.7574 16.5723 28.5949 9.375 37.0291 9.375Z" fill="#333333"/>
<path fill-rule="evenodd" clip-rule="evenodd" d="M48.7258 29.7891C48.4856 32.5391 50.9095 31.0866 50.9095 32.0805C50.9095 40.2841 44.695 46.9345 37.0292 46.9345C29.3635 46.9345 23.1493 40.284 23.1493 32.0805C24.7854 34.7063 25.0358 31.3752 24.9622 29.8389C24.61 22.5162 28.9925 17.8104 29.1308 16.0806C28.7565 17.5947 36.3492 22.0542 43.9677 22.1215C45.4796 22.135 45.9244 21.5638 46.7526 22.6919C47.7662 24.0724 48.7712 28.115 48.7258 29.7891Z" fill="#FAD3A8"/>
<path fill-rule="evenodd" clip-rule="evenodd" d="M62.3393 59.8384C59.4125 57.5174 46.228 50.496 43.3616 49.4463C42.8308 51.4011 39.7785 52.9377 36.9664 52.9377C34.1545 52.9377 31.2275 51.6998 30.697 49.745C27.8303 50.7947 15.5871 57.5174 12.6606 59.8384C18.222 67.5487 55.5754 67.5591 62.3394 59.8384L62.3393 59.8384Z" fill="#0288D1"/>
<path fill-rule="evenodd" clip-rule="evenodd" d="M52.3839 27.0249C51.3875 26.662 50.0633 28.0956 49.4254 30.2268C48.7877 32.3584 49.0782 34.3804 50.0742 34.7431C51.0705 35.1061 52.3953 33.6725 53.0327 31.5413C53.6707 29.4094 53.3802 27.3877 52.3839 27.0249Z" fill="#FAD3A8"/>
<path fill-rule="evenodd" clip-rule="evenodd" d="M21.675 27.0249C22.6713 26.662 23.9956 28.0956 24.6335 30.2269C25.2715 32.3584 24.9809 34.3804 23.9846 34.7434C22.9886 35.1061 21.6638 33.6725 21.0263 31.5413C20.3884 29.4097 20.679 27.3877 21.675 27.0249Z" fill="#FAD3A8"/>
</svg>
