<?xml version="1.0" encoding="utf-8"?><!-- Uploaded to: SVG Repo, www.svgrepo.com, Generator: SVG Repo Mixer Tools -->

<svg width="200px" height="200px" viewBox="0 0 60 63" fill="none" xmlns="http://www.w3.org/2000/svg">
<path d="M50.4545 53.1816V59.9998C50.4545 60.7231 50.1672 61.4168 49.6557 61.9283C49.1443 62.4398 48.4506 62.7271 47.7272 62.7271H12.2727C11.5494 62.7271 10.8557 62.4398 10.3443 61.9283C9.83279 61.4168 9.54546 60.7231 9.54546 59.9998V53.1816H50.4545Z" fill="ICON_COLOR_1"/>
<path d="M50.4545 30.0002V36.8184H9.54546V30.0002C9.54546 29.2769 9.83279 28.5832 10.3443 28.0717C10.8557 27.5603 11.5494 27.2729 12.2727 27.2729H47.7272C48.4506 27.2729 49.1443 27.5603 49.6557 28.0717C50.1672 28.5832 50.4545 29.2769 50.4545 30.0002Z" fill="ICON_COLOR_1"/>
<path d="M50.4545 55.9097V58.6369H16.3636C15.6403 58.6369 14.9466 58.3496 14.4351 57.8381C13.9236 57.3267 13.6363 56.633 13.6363 55.9097H50.4545Z" fill="ICON_COLOR_2"/>
<path d="M50.4545 30.0002V36.8184H13.6363V30.0002C13.6363 29.2769 13.9236 28.5832 14.4351 28.0717C14.9466 27.5603 15.6403 27.2729 16.3636 27.2729H47.7272C48.4505 27.2729 49.1442 27.5603 49.6557 28.0717C50.1671 28.5832 50.4545 29.2769 50.4545 30.0002Z" fill="ICON_COLOR_3"/>
<path d="M46.3635 16.3636V27.2727H40.909C40.909 16.2409 41.7408 12.6954 37.7181 8.64545C36.1924 7.11805 34.2478 6.07768 32.1305 5.65604C30.0133 5.2344 27.8185 5.45045 25.824 6.27684C23.8296 7.10323 22.1252 8.5028 20.9266 10.2984C19.728 12.0939 19.0891 14.2048 19.0908 16.3636V27.2727H13.6363V16.3636C13.6363 12.0237 15.3603 7.86157 18.4291 4.79279C21.4979 1.72402 25.66 0 29.9999 0C34.3398 0 38.502 1.72402 41.5708 4.79279C44.6395 7.86157 46.3635 12.0237 46.3635 16.3636Z" fill="#7C7D7D"/>
<path d="M46.3635 16.3636V27.2727H40.909C40.909 16.2409 41.7408 12.6954 37.7181 8.64545C36.1924 7.11805 34.2478 6.07768 32.1305 5.65604C30.0133 5.2344 27.8185 5.45045 25.824 6.27684C23.8296 7.10323 22.1252 8.5028 20.9266 10.2984C19.728 12.0939 19.0891 14.2048 19.0908 16.3636V27.2727H13.6363V16.3636C13.6363 12.0237 15.3603 7.86157 18.4291 4.79279C21.4979 1.72402 25.66 0 29.9999 0C34.3398 0 38.502 1.72402 41.5708 4.79279C44.6395 7.86157 46.3635 12.0237 46.3635 16.3636Z" fill="#7C7D7D"/>
<path d="M16.3637 16.364V27.2731H19.0909V16.364C19.0934 13.7086 20.0642 11.1453 21.8215 9.15454C23.5788 7.16379 26.0018 5.88233 28.6364 5.55041C27.1016 5.35705 25.5433 5.49229 24.0648 5.94718C22.5863 6.40207 21.2214 7.16619 20.0608 8.18884C18.9001 9.21149 17.9703 10.4693 17.3329 11.8788C16.6954 13.2882 16.3651 14.8171 16.3637 16.364Z" fill="#747575"/>
<path d="M28.6363 0.0686377C32.7239 0.410462 36.5341 2.27501 39.3121 5.29297C42.0902 8.31093 43.6335 12.2622 43.6363 16.3641V27.2732H46.3635V16.3641C46.362 14.1012 45.8911 11.8632 44.9807 9.79158C44.0702 7.71993 42.74 5.85964 41.074 4.32823C39.408 2.79682 37.4426 1.62759 35.3017 0.89442C33.1609 0.161246 30.8913 -0.119937 28.6363 0.0686377Z" fill="#919191"/>
<path d="M57.2727 36.8184H2.72727C1.22104 36.8184 0 38.0394 0 39.5456V50.4547C0 51.9609 1.22104 53.182 2.72727 53.182H57.2727C58.7789 53.182 59.9999 51.9609 59.9999 50.4547V39.5456C59.9999 38.0394 58.7789 36.8184 57.2727 36.8184Z" fill="#DAD7E5"/>
<path d="M60 39.5456V50.4547H17.7273C14.1108 50.4547 10.6423 49.018 8.08498 46.4607C5.52767 43.9034 4.09099 40.4349 4.09099 36.8184H57.2728C57.9961 36.8184 58.6898 37.1057 59.2012 37.6172C59.7127 38.1286 60 38.8223 60 39.5456Z" fill="#EDEBF2"/>
<path d="M9.85906 42.4506C9.44996 42.696 9.54542 42.7369 9.54542 42.2733C9.54542 41.9116 9.40175 41.5648 9.14602 41.3091C8.89029 41.0533 8.54344 40.9097 8.18178 40.9097C7.82013 40.9097 7.47328 41.0533 7.21755 41.3091C6.96182 41.5648 6.81815 41.9116 6.81815 42.2733C6.81815 42.7506 6.89997 42.6824 6.50451 42.4506C6.18987 42.2697 5.81628 42.2213 5.46593 42.3159C5.11558 42.4106 4.81716 42.6405 4.63633 42.9551C4.4555 43.2698 4.40707 43.6434 4.50169 43.9937C4.59631 44.3441 4.82624 44.6425 5.14088 44.8233C5.54997 45.0551 5.53633 44.946 5.14088 45.1778C4.82624 45.3587 4.59631 45.6571 4.50169 46.0074C4.40707 46.3578 4.4555 46.7314 4.63633 47.046C4.81716 47.3607 5.11558 47.5906 5.46593 47.6852C5.81628 47.7798 6.18987 47.7314 6.50451 47.5506C6.9136 47.3051 6.81815 47.2642 6.81815 47.7278C6.81815 48.0895 6.96182 48.4363 7.21755 48.6921C7.47328 48.9478 7.82013 49.0915 8.18178 49.0915C8.54344 49.0915 8.89029 48.9478 9.14602 48.6921C9.40175 48.4363 9.54542 48.0895 9.54542 47.7278C9.54542 47.2506 9.4636 47.3188 9.85906 47.5506C10.1737 47.7314 10.5473 47.7798 10.8976 47.6852C11.248 47.5906 11.5464 47.3607 11.7272 47.046C11.9081 46.7314 11.9565 46.3578 11.8619 46.0074C11.7673 45.6571 11.5373 45.3587 11.2227 45.1778C10.8136 44.946 10.8272 45.0551 11.2227 44.8233C11.5373 44.6425 11.7673 44.3441 11.8619 43.9937C11.9565 43.6434 11.9081 43.2698 11.7272 42.9551C11.5464 42.6405 11.248 42.4106 10.8976 42.3159C10.5473 42.2213 10.1737 42.2697 9.85906 42.4506Z" fill="#374F68"/>
<path d="M20.7682 42.4506C20.3591 42.696 20.4546 42.7369 20.4546 42.2733C20.4546 41.9116 20.3109 41.5648 20.0552 41.3091C19.7994 41.0533 19.4526 40.9097 19.0909 40.9097C18.7293 40.9097 18.3824 41.0533 18.1267 41.3091C17.871 41.5648 17.7273 41.9116 17.7273 42.2733C17.7273 42.7506 17.8091 42.6824 17.4137 42.4506C17.099 42.2697 16.7254 42.2213 16.3751 42.3159C16.0247 42.4106 15.7263 42.6405 15.5455 42.9551C15.3647 43.2698 15.3162 43.6434 15.4108 43.9937C15.5055 44.3441 15.7354 44.6425 16.05 44.8233C16.4591 45.0551 16.4455 44.946 16.05 45.1778C15.7354 45.3587 15.5055 45.6571 15.4108 46.0074C15.3162 46.3578 15.3647 46.7314 15.5455 47.046C15.7263 47.3607 16.0247 47.5906 16.3751 47.6852C16.7254 47.7798 17.099 47.7314 17.4137 47.5506C17.8228 47.3051 17.7273 47.2642 17.7273 47.7278C17.7273 48.0895 17.871 48.4363 18.1267 48.6921C18.3824 48.9478 18.7293 49.0915 19.0909 49.0915C19.4526 49.0915 19.7994 48.9478 20.0552 48.6921C20.3109 48.4363 20.4546 48.0895 20.4546 47.7278C20.4546 47.2506 20.3728 47.3188 20.7682 47.5506C21.0828 47.7314 21.4564 47.7798 21.8068 47.6852C22.1571 47.5906 22.4556 47.3607 22.6364 47.046C22.8172 46.7314 22.8656 46.3578 22.771 46.0074C22.6764 45.6571 22.4465 45.3587 22.1318 45.1778C21.7227 44.946 21.7364 45.0551 22.1318 44.8233C22.4465 44.6425 22.6764 44.3441 22.771 43.9937C22.8656 43.6434 22.8172 43.2698 22.6364 42.9551C22.4556 42.6405 22.1571 42.4106 21.8068 42.3159C21.4564 42.2213 21.0828 42.2697 20.7682 42.4506Z" fill="#374F68"/>
<path d="M42.5863 42.4506C42.1772 42.696 42.2727 42.7369 42.2727 42.2733C42.2727 41.9116 42.129 41.5648 41.8733 41.3091C41.6176 41.0533 41.2707 40.9097 40.9091 40.9097C40.5474 40.9097 40.2006 41.0533 39.9448 41.3091C39.6891 41.5648 39.5454 41.9116 39.5454 42.2733C39.5454 42.7506 39.6272 42.6824 39.2318 42.4506C38.9172 42.2697 38.5436 42.2213 38.1932 42.3159C37.8429 42.4106 37.5444 42.6405 37.3636 42.9551C37.1828 43.2698 37.1344 43.6434 37.229 43.9937C37.3236 44.3441 37.5535 44.6425 37.8682 44.8233C38.2772 45.0551 38.2636 44.946 37.8682 45.1778C37.5535 45.3587 37.3236 45.6571 37.229 46.0074C37.1344 46.3578 37.1828 46.7314 37.3636 47.046C37.5444 47.3607 37.8429 47.5906 38.1932 47.6852C38.5436 47.7798 38.9172 47.7314 39.2318 47.5506C39.6409 47.3051 39.5454 47.2642 39.5454 47.7278C39.5454 48.0895 39.6891 48.4363 39.9448 48.6921C40.2006 48.9478 40.5474 49.0915 40.9091 49.0915C41.2707 49.0915 41.6176 48.9478 41.8733 48.6921C42.129 48.4363 42.2727 48.0895 42.2727 47.7278C42.2727 47.2506 42.1909 47.3188 42.5863 47.5506C42.901 47.7314 43.2746 47.7798 43.6249 47.6852C43.9753 47.5906 44.2737 47.3607 44.4545 47.046C44.6353 46.7314 44.6838 46.3578 44.5892 46.0074C44.4945 45.6571 44.2646 45.3587 43.95 45.1778C43.5409 44.946 43.5545 45.0551 43.95 44.8233C44.2646 44.6425 44.4945 44.3441 44.5892 43.9937C44.6838 43.6434 44.6353 43.2698 44.4545 42.9551C44.2737 42.6405 43.9753 42.4106 43.6249 42.3159C43.2746 42.2213 42.901 42.2697 42.5863 42.4506Z" fill="#374F68"/>
<path d="M31.6772 42.4506C31.2681 42.696 31.3636 42.7369 31.3636 42.2733C31.3636 41.9116 31.2199 41.5648 30.9642 41.3091C30.7084 41.0533 30.3616 40.9097 29.9999 40.9097C29.6383 40.9097 29.2914 41.0533 29.0357 41.3091C28.78 41.5648 28.6363 41.9116 28.6363 42.2733C28.6363 42.7506 28.7181 42.6824 28.3227 42.4506C28.008 42.2697 27.6344 42.2213 27.2841 42.3159C26.9337 42.4106 26.6353 42.6405 26.4545 42.9551C26.2736 43.2698 26.2252 43.6434 26.3198 43.9937C26.4145 44.3441 26.6444 44.6425 26.959 44.8233C27.3681 45.0551 27.3545 44.946 26.959 45.1778C26.6444 45.3587 26.4145 45.6571 26.3198 46.0074C26.2252 46.3578 26.2736 46.7314 26.4545 47.046C26.6353 47.3607 26.9337 47.5906 27.2841 47.6852C27.6344 47.7798 28.008 47.7314 28.3227 47.5506C28.7318 47.3051 28.6363 47.2642 28.6363 47.7278C28.6363 48.0895 28.78 48.4363 29.0357 48.6921C29.2914 48.9478 29.6383 49.0915 29.9999 49.0915C30.3616 49.0915 30.7084 48.9478 30.9642 48.6921C31.2199 48.4363 31.3636 48.0895 31.3636 47.7278C31.3636 47.2506 31.2817 47.3188 31.6772 47.5506C31.9918 47.7314 32.3654 47.7798 32.7158 47.6852C33.0661 47.5906 33.3646 47.3607 33.5454 47.046C33.7262 46.7314 33.7746 46.3578 33.68 46.0074C33.5854 45.6571 33.3555 45.3587 33.0408 45.1778C32.6317 44.946 32.6454 45.0551 33.0408 44.8233C33.3555 44.6425 33.5854 44.3441 33.68 43.9937C33.7746 43.6434 33.7262 43.2698 33.5454 42.9551C33.3646 42.6405 33.0661 42.4106 32.7158 42.3159C32.3654 42.2213 31.9918 42.2697 31.6772 42.4506Z" fill="#374F68"/>
<path d="M54.859 45.1778C54.45 44.946 54.4636 45.0551 54.859 44.8233C55.1737 44.6425 55.4036 44.3441 55.4982 43.9937C55.5928 43.6434 55.5444 43.2698 55.3636 42.9551C55.1828 42.6405 54.8843 42.4106 54.534 42.3159C54.1836 42.2213 53.81 42.2697 53.4954 42.4506C53.0863 42.696 53.1818 42.7369 53.1818 42.2733C53.1818 41.9116 53.0381 41.5648 52.7824 41.3091C52.5266 41.0533 52.1798 40.9097 51.8181 40.9097C51.4565 40.9097 51.1096 41.0533 50.8539 41.3091C50.5982 41.5648 50.4545 41.9116 50.4545 42.2733C50.4545 42.7506 50.5363 42.6824 50.1409 42.4506C49.8262 42.2697 49.4526 42.2213 49.1023 42.3159C48.7519 42.4106 48.4535 42.6405 48.2727 42.9551C48.0919 43.2698 48.0434 43.6434 48.138 43.9937C48.2327 44.3441 48.4626 44.6425 48.7772 44.8233C49.1863 45.0551 49.1727 44.946 48.7772 45.1778C48.5145 45.3267 48.3087 45.5585 48.1919 45.837C48.0752 46.1155 48.0542 46.4248 48.1322 46.7165C48.2101 47.0082 48.3827 47.2657 48.6229 47.4488C48.863 47.6318 49.1571 47.73 49.459 47.7278C50.509 47.7278 50.4545 46.8688 50.4545 47.7278C50.4545 48.0895 50.5982 48.4363 50.8539 48.6921C51.1096 48.9478 51.4565 49.0915 51.8181 49.0915C52.1798 49.0915 52.5266 48.9478 52.7824 48.6921C53.0381 48.4363 53.1818 48.0895 53.1818 47.7278V47.3597C55.3363 48.6006 56.2909 46.0097 54.859 45.1778Z" fill="#374F68"/>
</svg>
