<svg width="71" height="71" viewBox="0 0 71 71" fill="none" xmlns="http://www.w3.org/2000/svg">
<g clip-path="url(#clip0_83_236)">
<path d="M35.4999 44.3752C40.4014 44.3752 44.3749 40.4017 44.3749 35.5002C44.3749 30.5986 40.4014 26.6252 35.4999 26.6252C30.5984 26.6252 26.6249 30.5986 26.6249 35.5002C26.6249 40.4017 30.5984 44.3752 35.4999 44.3752Z" stroke="#847D7D" stroke-width="4" stroke-linecap="round" stroke-linejoin="round"/>
<path d="M57.3916 44.3752C56.9978 45.2674 56.8803 46.2572 57.0543 47.2169C57.2283 48.1766 57.6858 49.0621 58.3678 49.7593L58.5453 49.9368C59.0954 50.4863 59.5318 51.1389 59.8296 51.8571C60.1274 52.5754 60.2806 53.3453 60.2806 54.1229C60.2806 54.9004 60.1274 55.6703 59.8296 56.3886C59.5318 57.1069 59.0954 57.7594 58.5453 58.3089C57.9958 58.859 57.3433 59.2954 56.625 59.5932C55.9067 59.8909 55.1368 60.0442 54.3593 60.0442C53.5817 60.0442 52.8118 59.8909 52.0936 59.5932C51.3753 59.2954 50.7227 58.859 50.1732 58.3089L49.9957 58.1314C49.2985 57.4494 48.413 56.9919 47.4533 56.8179C46.4937 56.6439 45.5039 56.7614 44.6116 57.1552C43.7366 57.5302 42.9904 58.1528 42.4647 58.9465C41.9391 59.7402 41.657 60.6703 41.6532 61.6222V62.1252C41.6532 63.6944 41.0299 65.1993 39.9203 66.3089C38.8107 67.4185 37.3058 68.0418 35.7366 68.0418C34.1674 68.0418 32.6625 67.4185 31.5529 66.3089C30.4433 65.1993 29.8199 63.6944 29.8199 62.1252V61.8589C29.797 60.8797 29.4801 59.9301 28.9103 59.1334C28.3405 58.3367 27.5442 57.7299 26.6249 57.3918C25.7326 56.998 24.7428 56.8806 23.7832 57.0546C22.8235 57.2286 21.938 57.6861 21.2407 58.3681L21.0632 58.5456C20.5138 59.0957 19.8612 59.5321 19.1429 59.8298C18.4247 60.1276 17.6548 60.2809 16.8772 60.2809C16.0997 60.2809 15.3298 60.1276 14.6115 59.8298C13.8932 59.5321 13.2407 59.0957 12.6912 58.5456C12.1411 57.9961 11.7046 57.3435 11.4069 56.6253C11.1091 55.907 10.9559 55.1371 10.9559 54.3595C10.9559 53.582 11.1091 52.8121 11.4069 52.0938C11.7046 51.3755 12.1411 50.723 12.6912 50.1735L12.8687 49.996C13.5507 49.2988 14.0082 48.4132 14.1822 47.4536C14.3562 46.4939 14.2387 45.5041 13.8449 44.6118C13.4699 43.7368 12.8472 42.9906 12.0535 42.465C11.2599 41.9394 10.3298 41.6573 9.37783 41.6535H8.87492C7.30572 41.6535 5.80079 41.0301 4.6912 39.9205C3.58161 38.8109 2.95825 37.306 2.95825 35.7368C2.95825 34.1676 3.58161 32.6627 4.6912 31.5531C5.80079 30.4435 7.30572 29.8202 8.87492 29.8202H9.14117C10.1204 29.7973 11.07 29.4803 11.8667 28.9105C12.6633 28.3407 13.2702 27.5444 13.6083 26.6252C14.002 25.7329 14.1195 24.7431 13.9455 23.7834C13.7715 22.8238 13.314 21.9382 12.632 21.241L12.4545 21.0635C11.9044 20.514 11.468 19.8615 11.1702 19.1432C10.8725 18.4249 10.7192 17.655 10.7192 16.8775C10.7192 16.0999 10.8725 15.33 11.1702 14.6117C11.468 13.8935 11.9044 13.2409 12.4545 12.6914C13.004 12.1413 13.6565 11.7049 14.3748 11.4071C15.0931 11.1094 15.863 10.9561 16.6405 10.9561C17.4181 10.9561 18.188 11.1094 18.9063 11.4071C19.6245 11.7049 20.2771 12.1413 20.8266 12.6914L21.0041 12.8689C21.7013 13.5509 22.5868 14.0084 23.5465 14.1824C24.5062 14.3564 25.496 14.239 26.3882 13.8452H26.6249C27.4999 13.4702 28.2461 12.8475 28.7718 12.0538C29.2974 11.2601 29.5795 10.33 29.5832 9.37808V8.87516C29.5832 7.30596 30.2066 5.80104 31.3162 4.69145C32.4258 3.58186 33.9307 2.9585 35.4999 2.9585C37.0691 2.9585 38.574 3.58186 39.6836 4.69145C40.7932 5.80104 41.4166 7.30596 41.4166 8.87516V9.14141C41.4204 10.0934 41.7024 11.0234 42.2281 11.8171C42.7537 12.6108 43.4999 13.2335 44.3749 13.6085C45.2672 14.0023 46.257 14.1198 47.2167 13.9458C48.1763 13.7718 49.0619 13.3142 49.7591 12.6322L49.9366 12.4547C50.4861 11.9046 51.1386 11.4682 51.8569 11.1705C52.5752 10.8727 53.3451 10.7195 54.1226 10.7195C54.9002 10.7195 55.6701 10.8727 56.3884 11.1705C57.1066 11.4682 57.7592 11.9046 58.3087 12.4547C58.8588 13.0042 59.2952 13.6568 59.5929 14.3751C59.8907 15.0933 60.0439 15.8632 60.0439 16.6408C60.0439 17.4183 59.8907 18.1882 59.5929 18.9065C59.2952 19.6248 58.8588 20.2773 58.3087 20.8268L58.1312 21.0043C57.4492 21.7015 56.9917 22.5871 56.8176 23.5468C56.6436 24.5064 56.7611 25.4962 57.1549 26.3885V26.6252C57.5299 27.5001 58.1526 28.2464 58.9463 28.772C59.74 29.2976 60.67 29.5797 61.622 29.5835H62.1249C63.6941 29.5835 65.199 30.2069 66.3086 31.3164C67.4182 32.426 68.0416 33.931 68.0416 35.5002C68.0416 37.0694 67.4182 38.5743 66.3086 39.6839C65.199 40.7935 63.6941 41.4168 62.1249 41.4168H61.8587C60.9067 41.4206 59.9766 41.7027 59.183 42.2283C58.3893 42.7539 57.7666 43.5002 57.3916 44.3752Z" stroke="#847D7D" stroke-width="4" stroke-linecap="round" stroke-linejoin="round"/>
</g>
<defs>
<clipPath id="clip0_83_236">
<rect width="71" height="71" fill="white"/>
</clipPath>
</defs>
</svg>
